# Blender 4.1.0
# www.blender.org
mtllib diamond.mtl
o Diamond
v 0.115892 0.482828 -0.019693
v -0.053595 0.482828 -0.097861
v 0.094530 0.482828 0.081660
v 0.001969 0.482828 0.128151
v -0.092089 0.482828 0.084771
v -0.116817 0.482828 -0.015814
v 0.049970 0.482828 -0.099587
v 0.093891 0.476248 0.081168
v 0.093891 0.489407 0.081168
v -0.091467 0.476248 0.084258
v 0.117035 0.482828 0.033476
v -0.050121 0.482828 0.117434
v 0.092252 0.482828 -0.067330
v -0.002014 0.482828 -0.110806
v -0.094778 0.482828 -0.064213
v 0.115110 0.489407 -0.019500
v 0.049633 0.489407 -0.098856
v 0.001956 0.476248 0.127345
v 0.053673 0.482828 0.115704
v -0.116029 0.489407 -0.015648
v -0.053233 0.476248 -0.097141
v 0.001956 0.489407 0.127345
v -0.053233 0.489407 -0.097141
v -0.091467 0.489407 0.084258
v -0.116187 0.482828 0.037363
v -0.116029 0.476248 -0.015648
v 0.115110 0.476248 -0.019500
v 0.049633 0.476248 -0.098856
v 0.053673 0.476846 0.115704
v 0.053673 0.488809 0.115704
v 0.041549 0.507949 0.091566
v 0.117035 0.476846 0.033476
v 0.117035 0.488809 0.033476
v 0.090604 0.507949 0.027905
v -0.001563 0.507949 -0.083798
v -0.002014 0.488809 -0.110806
v -0.002014 0.476846 -0.110806
v 0.092252 0.476846 -0.067330
v 0.092252 0.488809 -0.067330
v 0.071417 0.507949 -0.050139
v -0.116187 0.476846 0.037363
v -0.116187 0.488809 0.037363
v -0.089957 0.507949 0.030915
v -0.094778 0.476846 -0.064213
v -0.094778 0.488809 -0.064213
v -0.073382 0.507949 -0.047726
v -0.050121 0.476846 0.117434
v -0.017982 0.519912 -0.025872
v -0.017580 0.405070 -0.004727
v -0.038330 0.519912 0.001227
v -0.021548 0.405070 0.014096
v -0.029830 0.519912 0.034031
v -0.009304 0.405070 0.028935
v 0.001118 0.519912 0.047839
v 0.009930 0.405070 0.028614
v 0.031208 0.519912 0.032253
v 0.021672 0.405070 0.013376
v 0.037783 0.519912 -0.000991
v 0.017080 0.405070 -0.005305
v 0.015892 0.519912 -0.026859
v -0.000389 0.405070 -0.013362
v -0.050121 0.488809 0.117434
v -0.038808 0.507949 0.092905
v -0.000020 0.389928 0.008804
vn -0.6260 -0.0626 -0.7773
vn -0.4569 0.8843 -0.0963
vn -0.9980 0.0626 0.0048
vn -0.5352 0.8086 -0.2442
vn 0.3659 -0.7976 -0.4795
vn 0.9976 -0.0626 -0.0285
vn 0.6030 -0.7976 -0.0129
vn 0.9013 0.0626 0.4287
vn -0.2096 0.8843 -0.4173
vn 0.5268 0.8086 -0.2619
vn 0.6443 -0.0626 0.7622
vn -0.2546 0.9656 -0.0537
vn -0.5246 0.8086 0.2662
vn 0.9976 0.0626 -0.0285
vn -0.1216 -0.7976 0.5908
vn -0.5489 -0.7976 -0.2500
vn -0.5377 -0.7976 0.2733
vn -0.9112 -0.0626 -0.4072
vn -0.1428 0.8086 -0.5707
vn -0.6185 0.0626 0.7833
vn -0.2498 0.0626 -0.9663
vn 0.1381 0.8086 0.5719
vn -0.1468 -0.7976 -0.5851
vn 0.3763 0.8086 0.4522
vn 0.2267 0.0626 0.9719
vn 0.6443 0.0626 0.7622
vn 0.1090 0.9656 -0.2363
vn 0.3861 -0.7976 0.4634
vn 0.2527 0.9656 -0.0621
vn -0.1189 0.8086 0.5762
vn 0.2061 0.9656 0.1588
vn -0.1942 0.0626 0.9790
vn 0.0043 0.9656 0.2601
vn -0.4660 -0.7969 0.3845
vn -0.2007 0.9656 0.1656
vn 0.9013 -0.0626 0.4287
vn 0.2267 -0.0626 0.9719
vn 0.1956 0.8843 -0.4240
vn 0.5332 0.8086 0.2486
vn -0.3725 0.8086 -0.4553
vn -0.3602 0.8843 0.2972
vn 0.1237 0.8086 -0.5751
vn -0.8865 0.0626 0.4585
vn -0.0000 1.0000 -0.0000
vn 0.5882 0.8086 -0.0122
vn 0.3571 0.8086 -0.4675
vn -0.9112 0.0626 -0.4072
vn 0.2174 0.0626 -0.9741
vn -0.9980 -0.0626 0.0048
vn -0.6185 -0.0626 0.7833
vn -0.1942 -0.0626 0.9790
vn 0.3699 0.8843 0.2850
vn 0.0078 0.8843 0.4669
vn 0.4534 0.8843 -0.1115
vn 0.8971 0.0626 -0.4373
vn -0.3610 0.8086 0.4645
vn -0.8865 -0.0626 0.4585
vn 0.5997 -0.0626 -0.7977
vn 0.5997 0.0626 -0.7977
vn -0.5883 0.8086 0.0074
vn -0.6260 0.0626 -0.7773
vn 0.2174 -0.0626 -0.9741
vn 0.8971 -0.0626 -0.4373
vn -0.1168 0.9656 -0.2325
vn -0.2498 -0.0626 -0.9663
vn 0.2452 -0.8108 -0.5316
vn 0.1272 -0.7976 -0.5896
vn 0.5684 -0.8108 -0.1398
vn 0.5403 -0.7976 -0.2682
vn 0.0098 -0.8108 0.5853
vn 0.1412 -0.7976 0.5864
vn -0.5728 -0.8108 -0.1207
vn -0.6031 -0.7976 0.0072
vn -0.4515 -0.8108 0.3726
vn -0.3704 -0.7976 0.4760
vn -0.2627 -0.8108 -0.5231
vn -0.3817 -0.7976 -0.4671
vn 0.4637 -0.8108 0.3573
vn 0.5465 -0.7976 0.2552
vn -0.1631 0.9790 -0.1225
vn 0.1557 0.9790 -0.1317
vn 0.2001 0.9790 0.0396
vn 0.0938 0.9790 0.1811
vn -0.0831 0.9790 0.1862
vn -0.1974 0.9790 0.0512
vn -0.0059 0.9790 -0.2039
vn -0.2712 -0.7969 -0.5399
vn 0.2530 -0.7969 -0.5486
vn -0.5912 -0.7969 -0.1246
vn 0.5867 -0.7969 -0.1442
vn 0.0101 -0.7969 0.6041
vn 0.4785 -0.7969 0.3688
vt 0.173340 0.500494
vt 0.173340 0.521384
vt 0.319116 0.521384
vt 0.320337 0.498405
vt 0.184638 0.426689
vt 0.247099 0.700350
vt 0.096301 0.590810
vt 0.407028 0.521384
vt 0.407028 0.542275
vt 0.592142 0.544364
vt 0.592768 0.521384
vt 0.173340 0.759171
vt 0.679663 0.871742
vt 0.826660 0.759171
vt 0.560536 0.546944
vt 0.592142 0.498405
vt 0.407028 0.500494
vt 0.903699 0.590810
vt 0.907338 0.405696
vt 0.575487 0.481438
vt 0.241825 0.544364
vt 0.240070 0.521384
vt 0.500000 0.822140
vt 0.320337 0.871742
vt 0.752901 0.700350
vt 0.823742 0.498405
vt 0.825942 0.521384
vt 0.681283 0.521384
vt 0.681283 0.500494
vt 0.366657 0.527358
vt 0.092662 0.405696
vt 0.176258 0.240493
vt 0.500000 0.084587
vt 0.318717 0.122231
vt 0.466405 0.428907
vt 0.439464 0.546944
vt 0.424513 0.481438
vt 0.760503 0.521384
vt 0.760503 0.500494
vt 0.500000 0.916482
vt 0.318717 0.521384
vt 0.318717 0.542275
vt 0.176258 0.544364
vt 0.174058 0.521384
vt 0.320337 0.544364
vt 0.500000 0.542275
vt 0.500000 0.521384
vt 0.681283 0.122231
vt 0.640349 0.207229
vt 0.500000 0.576096
vt 0.823742 0.240493
vt 0.681283 0.542275
vt 0.500000 0.544364
vt 0.823742 0.544364
vt 0.557643 0.622283
vt 0.533595 0.428907
vt 0.632586 0.530674
vt 0.815362 0.426689
vt 0.359651 0.207229
vt 0.607689 0.414963
vt 0.501700 0.362284
vt 0.500000 0.498668
vt 0.394431 0.412305
vt 0.241825 0.498405
vt 0.500000 0.498405
vt 0.439293 0.620808
vt 0.760503 0.542275
vt 0.679663 0.544364
vt 0.680884 0.521384
vt 0.318717 0.500494
vt 0.176258 0.498405
vt 0.679663 0.498405
vt 0.826660 0.521384
vt 0.826660 0.500494
vt 0.826660 0.542275
vt 0.173340 0.542275
vt 0.500000 0.500494
s 0
usemtl Lava
f 44/1/1 15/2/1 2/3/1 21/4/1
f 43/5/2 46/6/2 20/7/2
f 25/8/3 42/9/3 20/10/3 6/11/3
f 46/6/4 45/12/4 20/7/4
f 28/13/5 38/14/5 59/15/5
f 27/16/6 1/11/6 11/8/6 32/17/6
f 27/18/7 32/19/7 57/20/7
f 11/8/8 33/9/8 9/21/8 3/22/8
f 46/6/9 35/23/9 23/24/9
f 16/18/10 39/14/10 40/25/10
f 8/26/11 3/27/11 19/28/11 29/29/11
f 50/30/12 46/6/12 43/5/12
f 43/5/13 42/31/13 24/32/13
f 1/11/14 16/10/14 33/9/14 11/8/14
f 18/33/15 47/34/15 53/35/15
f 26/7/16 44/12/16 49/36/16
f 10/32/17 41/31/17 51/37/17
f 26/16/18 6/11/18 15/38/18 44/39/18
f 35/23/19 36/40/19 23/24/19
f 12/41/20 62/42/20 24/43/20 5/44/20
f 2/3/21 23/45/21 36/46/21 14/47/21
f 22/33/22 30/48/22 31/49/22
f 21/24/23 37/40/23 61/50/23
f 31/49/24 30/48/24 9/51/24
f 19/28/25 30/52/25 22/53/25 4/47/25
f 3/27/26 9/54/26 30/52/26 19/28/26
f 60/55/27 40/25/27 35/23/27
f 8/51/28 29/48/28 55/56/28
f 58/57/29 34/58/29 40/25/29
f 63/59/30 62/34/30 22/33/30
f 56/60/31 31/49/31 34/58/31
f 4/47/32 22/53/32 62/42/32 12/41/32
f 54/61/33 63/59/33 31/49/33
f 53/35/34 51/37/34 64/62/34
f 52/63/35 43/5/35 63/59/35
f 32/17/36 11/8/36 3/22/36 8/64/36
f 29/29/37 19/28/37 4/47/37 18/65/37
f 35/23/38 40/25/38 17/13/38
f 9/51/39 33/19/39 34/58/39
f 23/24/40 45/12/40 46/6/40
f 63/59/41 43/5/41 24/32/41
f 17/13/42 36/40/42 35/23/42
f 5/22/43 24/21/43 42/9/43 25/8/43
f 60/55/44 48/66/44 50/30/44 52/63/44 54/61/44 56/60/44 58/57/44
f 34/58/45 33/19/45 16/18/45
f 40/25/46 39/14/46 17/13/46
f 6/11/47 20/10/47 45/67/47 15/38/47
f 14/47/48 36/46/48 17/68/48 7/69/48
f 41/17/49 25/8/49 6/11/49 26/16/49
f 47/70/50 12/41/50 5/44/50 10/71/50
f 18/65/51 4/47/51 12/41/51 47/70/51
f 34/58/52 31/49/52 9/51/52
f 31/49/53 63/59/53 22/33/53
f 40/25/54 34/58/54 16/18/54
f 13/38/55 39/67/55 16/10/55 1/11/55
f 24/32/56 62/34/56 63/59/56
f 10/64/57 5/22/57 25/8/57 41/17/57
f 28/72/58 7/69/58 13/73/58 38/74/58
f 7/69/59 17/68/59 39/75/59 13/73/59
f 20/7/60 42/31/60 43/5/60
f 15/2/61 45/76/61 23/45/61 2/3/61
f 37/77/62 14/47/62 7/69/62 28/72/62
f 38/39/63 13/38/63 1/11/63 27/16/63
f 48/66/64 35/23/64 46/6/64
f 21/4/65 2/3/65 14/47/65 37/77/65
f 59/15/66 61/50/66 28/13/66
f 61/50/67 37/40/67 28/13/67
f 57/20/68 59/15/68 27/18/68
f 59/15/69 38/14/69 27/18/69
f 53/35/70 55/56/70 18/33/70
f 55/56/71 29/48/71 18/33/71
f 49/36/72 51/37/72 26/7/72
f 51/37/73 41/31/73 26/7/73
f 51/37/74 53/35/74 10/32/74
f 53/35/75 47/34/75 10/32/75
f 61/50/76 49/36/76 21/24/76
f 49/36/77 44/12/77 21/24/77
f 55/56/78 57/20/78 8/51/78
f 57/20/79 32/19/79 8/51/79
f 50/30/80 48/66/80 46/6/80
f 60/55/81 58/57/81 40/25/81
f 58/57/82 56/60/82 34/58/82
f 56/60/83 54/61/83 31/49/83
f 54/61/84 52/63/84 63/59/84
f 52/63/85 50/30/85 43/5/85
f 48/66/86 60/55/86 35/23/86
f 49/36/87 61/50/87 64/62/87
f 61/50/88 59/15/88 64/62/88
f 51/37/89 49/36/89 64/62/89
f 59/15/90 57/20/90 64/62/90
f 55/56/91 53/35/91 64/62/91
f 57/20/92 55/56/92 64/62/92
